# xmcd CD database file
# Generated: Tue Jan 15 22:24:17 2002 by WSPse's MP3c
#
# Track frame offsets:
#       182
#       19750
#       37682
#       60052
#       76245
#       92600
#       107442
#       121802
#       138877
#       153575
#
# Disc length: 2241 seconds
#
# Revision: 3
# Processed by: cddbd v1.4PL0 Copyright (c) Steve Scherf et al.
# Submitted via: MP3c 0.27
#   WSPse mp3c-0.27 (NLS) - ENGLISH (Jan  4 2002)
#
DISCID=6108bf0a
DTITLE=Reba McEntire - Reba Greatest Hits Volume Two
DYEAR=1993
DGENRE=country
TTITLE0=Does He Love You
TTITLE1=You Lie
TTITLE2=Fancy
TTITLE3=For My Broken Heart
TTITLE4=Love Will Find It's Way To You
TTITLE5=They Asked About You
TTITLE6=Is There Life Out There
TTITLE7=Rumor Has It
TTITLE8=Walk On
TTITLE9=The Greatest Man I Never Knew
EXTD=
EXTT0=
EXTT1=
EXTT2=
EXTT3=
EXTT4=
EXTT5=
EXTT6=
EXTT7=
EXTT8=
EXTT9=
PLAYORDER=
